<svg xmlns="http://www.w3.org/2000/svg" data-name="Layer 1" viewBox="0 0 100 125" x="0px" y="0px"><title>pixel art</title><polygon points="70 48 70 44 66 44 66 40 62 40 62 36 58 36 58 32 54 32 54 28 50 28 50 24 46 24 46 20 42 20 42 16 38 16 38 12 34 12 34 16 34 20 34 24 34 28 34 32 34 36 34 40 34 44 34 48 34 52 34 56 34 60 34 64 34 68 34 72 34 76 34 80 34 84 34 88 38 88 38 84 42 84 42 80 46 80 46 76 50 76 50 72 54 72 54 68 58 68 58 64 62 64 62 60 66 60 66 56 70 56 70 52 74 52 74 48 70 48"/><text x="0" y="115" fill="#000000" font-size="5px" font-weight="bold" font-family="'Helvetica Neue', Helvetica, Arial-Unicode, Arial, Sans-serif">Created by Robbe de Clerck</text><text x="0" y="120" fill="#000000" font-size="5px" font-weight="bold" font-family="'Helvetica Neue', Helvetica, Arial-Unicode, Arial, Sans-serif">from the Noun Project</text></svg>