<svg xmlns="http://www.w3.org/2000/svg" data-name="Layer 1" viewBox="0 0 100 125" x="0px" y="0px"><title>pixel art</title><polygon points="56 48 56 44 60 44 60 40 64 40 64 36 68 36 68 32 72 32 72 28 76 28 76 24 80 24 80 20 84 20 84 16 88 16 88 12 92 12 92 16 92 20 92 24 92 28 92 32 92 36 92 40 92 44 92 48 92 52 92 56 92 60 92 64 92 68 92 72 92 76 92 80 92 84 92 88 88 88 88 84 84 84 84 80 80 80 80 76 76 76 76 72 72 72 72 68 68 68 68 64 64 64 64 60 60 60 60 56 56 56 56 52 52 52 52 48 56 48"/><polygon points="16 48 16 44 20 44 20 40 24 40 24 36 28 36 28 32 32 32 32 28 36 28 36 24 40 24 40 20 44 20 44 16 48 16 48 12 52 12 52 16 52 20 52 24 52 28 52 32 52 36 52 40 52 44 52 48 52 52 52 56 52 60 52 64 52 68 52 72 52 76 52 80 52 84 52 88 48 88 48 84 44 84 44 80 40 80 40 76 36 76 36 72 32 72 32 68 28 68 28 64 24 64 24 60 20 60 20 56 16 56 16 52 12 52 12 48 16 48"/><text x="0" y="115" fill="#000000" font-size="5px" font-weight="bold" font-family="'Helvetica Neue', Helvetica, Arial-Unicode, Arial, Sans-serif">Created by Robbe de Clerck</text><text x="0" y="120" fill="#000000" font-size="5px" font-weight="bold" font-family="'Helvetica Neue', Helvetica, Arial-Unicode, Arial, Sans-serif">from the Noun Project</text></svg>