<svg xmlns="http://www.w3.org/2000/svg" data-name="Layer 1" viewBox="0 0 100 125" x="0px" y="0px"><title>pixel art</title><polygon points="48 48 48 44 44 44 44 40 40 40 40 36 36 36 36 32 32 32 32 28 28 28 28 24 24 24 24 20 20 20 20 16 16 16 16 12 12 12 12 16 12 20 12 24 12 28 12 32 12 36 12 40 12 44 12 48 12 52 12 56 12 60 12 64 12 68 12 72 12 76 12 80 12 84 12 88 16 88 16 84 20 84 20 80 24 80 24 76 28 76 28 72 32 72 32 68 36 68 36 64 40 64 40 60 44 60 44 56 48 56 48 52 52 52 52 48 48 48"/><polygon points="88 48 88 44 84 44 84 40 80 40 80 36 76 36 76 32 72 32 72 28 68 28 68 24 64 24 64 20 60 20 60 16 56 16 56 12 52 12 52 16 52 20 52 24 52 28 52 32 52 36 52 40 52 44 52 48 52 52 52 56 52 60 52 64 52 68 52 72 52 76 52 80 52 84 52 88 56 88 56 84 60 84 60 80 64 80 64 76 68 76 68 72 72 72 72 68 76 68 76 64 80 64 80 60 84 60 84 56 88 56 88 52 92 52 92 48 88 48"/><text x="0" y="115" fill="#000000" font-size="5px" font-weight="bold" font-family="'Helvetica Neue', Helvetica, Arial-Unicode, Arial, Sans-serif">Created by Robbe de Clerck</text><text x="0" y="120" fill="#000000" font-size="5px" font-weight="bold" font-family="'Helvetica Neue', Helvetica, Arial-Unicode, Arial, Sans-serif">from the Noun Project</text></svg>