<svg xmlns="http://www.w3.org/2000/svg" data-name="Layer 1" viewBox="0 0 100 125" x="0px" y="0px"><title>pixel art</title><polygon points="62.18 14 58.18 14 54.18 14 54.18 18 54.18 22 54.18 26 54.18 30 54.18 34 54.18 38 54.18 42 54.18 46 54.18 50 54.18 54 54.18 58 54.18 62 54.18 66 54.18 70 54.18 74 54.18 78 54.18 82 54.18 86 54.18 90 58.18 90 62.18 90 66.18 90 70.18 90 70.18 86 70.18 82 70.18 78 70.18 74 70.18 70 70.18 66 70.18 62 70.18 58 70.18 54 70.18 50 70.18 46 70.18 42 70.18 38 70.18 34 70.18 30 70.18 26 70.18 22 70.18 18 70.18 14 66.18 14 62.18 14"/><polygon points="34.18 14 30.18 14 26.18 14 26.18 18 26.18 22 26.18 26 26.18 30 26.18 34 26.18 38 26.18 42 26.18 46 26.18 50 26.18 54 26.18 58 26.18 62 26.18 66 26.18 70 26.18 74 26.18 78 26.18 82 26.18 86 26.18 90 30.18 90 34.18 90 38.18 90 42.18 90 42.18 86 42.18 82 42.18 78 42.18 74 42.18 70 42.18 66 42.18 62 42.18 58 42.18 54 42.18 50 42.18 46 42.18 42 42.18 38 42.18 34 42.18 30 42.18 26 42.18 22 42.18 18 42.18 14 38.18 14 34.18 14"/><text x="0" y="115" fill="#000000" font-size="5px" font-weight="bold" font-family="'Helvetica Neue', Helvetica, Arial-Unicode, Arial, Sans-serif">Created by Robbe de Clerck</text><text x="0" y="120" fill="#000000" font-size="5px" font-weight="bold" font-family="'Helvetica Neue', Helvetica, Arial-Unicode, Arial, Sans-serif">from the Noun Project</text></svg>